<svg width="159" height="97" viewBox="0 0 159 97" fill="none" xmlns="http://www.w3.org/2000/svg">
<path d="M20.88 27.592C28.128 27.592 33.84 29.728 38.016 34C42.192 38.272 44.28 44.416 44.28 52.432C44.28 58.192 43.152 63.16 40.896 67.336C38.688 71.464 35.544 74.608 31.464 76.768C27.432 78.928 22.752 80.008 17.424 80.008C14.592 80.008 11.88 79.672 9.288 79C6.696 78.376 4.488 77.488 2.664 76.336L7.848 66.112C10.296 67.84 13.392 68.704 17.136 68.704C20.736 68.704 23.64 67.72 25.848 65.752C28.104 63.736 29.424 60.832 29.808 57.04C26.928 59.488 23.16 60.712 18.504 60.712C15.336 60.712 12.432 60.064 9.792 58.768C7.152 57.424 5.04 55.552 3.456 53.152C1.92 50.704 1.152 47.92 1.152 44.8C1.152 41.392 2.016 38.392 3.744 35.8C5.52 33.16 7.896 31.144 10.872 29.752C13.896 28.312 17.232 27.592 20.88 27.592ZM21.888 50.488C23.952 50.488 25.632 49.912 26.928 48.76C28.224 47.56 28.872 46 28.872 44.08C28.872 42.208 28.224 40.696 26.928 39.544C25.68 38.344 23.976 37.744 21.816 37.744C19.8 37.744 18.144 38.32 16.848 39.472C15.6 40.624 14.976 42.184 14.976 44.152C14.976 46.072 15.6 47.608 16.848 48.76C18.144 49.912 19.824 50.488 21.888 50.488ZM66.1978 27.592C73.4458 27.592 79.1578 29.728 83.3338 34C87.5098 38.272 89.5978 44.416 89.5978 52.432C89.5978 58.192 88.4698 63.16 86.2138 67.336C84.0058 71.464 80.8618 74.608 76.7818 76.768C72.7498 78.928 68.0698 80.008 62.7418 80.008C59.9098 80.008 57.1978 79.672 54.6058 79C52.0138 78.376 49.8058 77.488 47.9818 76.336L53.1658 66.112C55.6138 67.84 58.7098 68.704 62.4538 68.704C66.0538 68.704 68.9578 67.72 71.1658 65.752C73.4218 63.736 74.7418 60.832 75.1258 57.04C72.2458 59.488 68.4778 60.712 63.8218 60.712C60.6538 60.712 57.7498 60.064 55.1098 58.768C52.4698 57.424 50.3578 55.552 48.7738 53.152C47.2378 50.704 46.4698 47.92 46.4698 44.8C46.4698 41.392 47.3338 38.392 49.0618 35.8C50.8378 33.16 53.2138 31.144 56.1898 29.752C59.2138 28.312 62.5498 27.592 66.1978 27.592ZM67.2058 50.488C69.2698 50.488 70.9498 49.912 72.2458 48.76C73.5418 47.56 74.1898 46 74.1898 44.08C74.1898 42.208 73.5418 40.696 72.2458 39.544C70.9978 38.344 69.2938 37.744 67.1338 37.744C65.1178 37.744 63.4618 38.32 62.1658 39.472C60.9178 40.624 60.2938 42.184 60.2938 44.152C60.2938 46.072 60.9178 47.608 62.1658 48.76C63.4618 49.912 65.1418 50.488 67.2058 50.488ZM97.4516 68.632C99.0196 68.632 100.316 69.128 101.34 70.12C102.364 71.112 102.876 72.408 102.876 74.008C102.876 74.744 102.78 75.48 102.588 76.216C102.396 76.952 101.964 78.056 101.292 79.528L98.2676 86.536H92.5556L94.8116 78.712C93.9156 78.296 93.2116 77.688 92.6996 76.888C92.2196 76.056 91.9796 75.096 91.9796 74.008C91.9796 72.408 92.4916 71.112 93.5156 70.12C94.5396 69.128 95.8516 68.632 97.4516 68.632Z" fill="url(#paint0_linear)"/>
<path d="M117.6 29.44C121.627 29.44 124.8 30.6267 127.12 33C129.44 35.3733 130.6 38.7867 130.6 43.24C130.6 46.44 129.973 49.2 128.72 51.52C127.493 53.8133 125.747 55.56 123.48 56.76C121.24 57.96 118.64 58.56 115.68 58.56C114.107 58.56 112.6 58.3733 111.16 58C109.72 57.6533 108.493 57.16 107.48 56.52L110.36 50.84C111.72 51.8 113.44 52.28 115.52 52.28C117.52 52.28 119.133 51.7333 120.36 50.64C121.613 49.52 122.347 47.9067 122.56 45.8C120.96 47.16 118.867 47.84 116.28 47.84C114.52 47.84 112.907 47.48 111.44 46.76C109.973 46.0133 108.8 44.9733 107.92 43.64C107.067 42.28 106.64 40.7333 106.64 39C106.64 37.1067 107.12 35.44 108.08 34C109.067 32.5333 110.387 31.4133 112.04 30.64C113.72 29.84 115.573 29.44 117.6 29.44ZM118.16 42.16C119.307 42.16 120.24 41.84 120.96 41.2C121.68 40.5333 122.04 39.6667 122.04 38.6C122.04 37.56 121.68 36.72 120.96 36.08C120.267 35.4133 119.32 35.08 118.12 35.08C117 35.08 116.08 35.4 115.36 36.04C114.667 36.68 114.32 37.5467 114.32 38.64C114.32 39.7067 114.667 40.56 115.36 41.2C116.08 41.84 117.013 42.16 118.16 42.16ZM144.897 58.56C142.497 58.56 140.363 57.9867 138.497 56.84C136.63 55.6933 135.163 54.0267 134.097 51.84C133.057 49.6267 132.537 47.0133 132.537 44C132.537 40.9867 133.057 38.3867 134.097 36.2C135.163 33.9867 136.63 32.3067 138.497 31.16C140.363 30.0133 142.497 29.44 144.897 29.44C147.27 29.44 149.39 30.0133 151.257 31.16C153.123 32.3067 154.577 33.9867 155.617 36.2C156.683 38.3867 157.217 40.9867 157.217 44C157.217 47.0133 156.683 49.6267 155.617 51.84C154.577 54.0267 153.123 55.6933 151.257 56.84C149.39 57.9867 147.27 58.56 144.897 58.56ZM144.897 52.08C146.23 52.08 147.283 51.44 148.057 50.16C148.857 48.8533 149.257 46.8 149.257 44C149.257 41.2 148.857 39.16 148.057 37.88C147.283 36.5733 146.23 35.92 144.897 35.92C143.537 35.92 142.457 36.5733 141.657 37.88C140.883 39.16 140.497 41.2 140.497 44C140.497 46.8 140.883 48.8533 141.657 50.16C142.457 51.44 143.537 52.08 144.897 52.08Z" fill="url(#paint1_linear)"/>
<path d="M5.404 4.2C6.272 4.2 7.02333 4.34467 7.658 4.634C8.302 4.92333 8.79667 5.334 9.142 5.866C9.48733 6.398 9.66 7.028 9.66 7.756C9.66 8.47467 9.48733 9.10467 9.142 9.646C8.79667 10.178 8.302 10.5887 7.658 10.878C7.02333 11.158 6.272 11.298 5.404 11.298H3.43V14H1.162V4.2H5.404ZM5.278 9.45C5.95933 9.45 6.47733 9.30533 6.832 9.016C7.18667 8.71733 7.364 8.29733 7.364 7.756C7.364 7.20533 7.18667 6.78533 6.832 6.496C6.47733 6.19733 5.95933 6.048 5.278 6.048H3.43V9.45H5.278ZM15.8819 14.168C14.8646 14.168 13.9452 13.9487 13.1239 13.51C12.3119 13.0713 11.6726 12.4693 11.2059 11.704C10.7486 10.9293 10.5199 10.0613 10.5199 9.1C10.5199 8.13867 10.7486 7.27533 11.2059 6.51C11.6726 5.73533 12.3119 5.12867 13.1239 4.69C13.9452 4.25133 14.8646 4.032 15.8819 4.032C16.8992 4.032 17.8139 4.25133 18.6259 4.69C19.4379 5.12867 20.0772 5.73533 20.5439 6.51C21.0106 7.27533 21.2439 8.13867 21.2439 9.1C21.2439 10.0613 21.0106 10.9293 20.5439 11.704C20.0772 12.4693 19.4379 13.0713 18.6259 13.51C17.8139 13.9487 16.8992 14.168 15.8819 14.168ZM15.8819 12.236C16.4606 12.236 16.9832 12.1053 17.4499 11.844C17.9166 11.5733 18.2806 11.2 18.5419 10.724C18.8126 10.248 18.9479 9.70667 18.9479 9.1C18.9479 8.49333 18.8126 7.952 18.5419 7.476C18.2806 7 17.9166 6.63133 17.4499 6.37C16.9832 6.09933 16.4606 5.964 15.8819 5.964C15.3032 5.964 14.7806 6.09933 14.3139 6.37C13.8472 6.63133 13.4786 7 13.2079 7.476C12.9466 7.952 12.8159 8.49333 12.8159 9.1C12.8159 9.70667 12.9466 10.248 13.2079 10.724C13.4786 11.2 13.8472 11.5733 14.3139 11.844C14.7806 12.1053 15.3032 12.236 15.8819 12.236ZM28.9124 14L27.0224 11.27H26.9104H24.9364V14H22.6684V4.2H26.9104C27.7784 4.2 28.5297 4.34467 29.1644 4.634C29.8084 4.92333 30.3031 5.334 30.6484 5.866C30.9937 6.398 31.1664 7.028 31.1664 7.756C31.1664 8.484 30.9891 9.114 30.6344 9.646C30.2891 10.1687 29.7944 10.57 29.1504 10.85L31.3484 14H28.9124ZM28.8704 7.756C28.8704 7.20533 28.6931 6.78533 28.3384 6.496C27.9837 6.19733 27.4657 6.048 26.7844 6.048H24.9364V9.464H26.7844C27.4657 9.464 27.9837 9.31467 28.3384 9.016C28.6931 8.71733 28.8704 8.29733 28.8704 7.756ZM42.8222 11.9H38.2722L37.4042 14H35.0802L39.4482 4.2H41.6882L46.0702 14H43.6902L42.8222 11.9ZM42.1082 10.178L40.5542 6.426L39.0002 10.178H42.1082ZM51.0489 4.2C51.9169 4.2 52.6683 4.34467 53.3029 4.634C53.9469 4.92333 54.4416 5.334 54.7869 5.866C55.1323 6.398 55.3049 7.028 55.3049 7.756C55.3049 8.47467 55.1323 9.10467 54.7869 9.646C54.4416 10.178 53.9469 10.5887 53.3029 10.878C52.6683 11.158 51.9169 11.298 51.0489 11.298H49.0749V14H46.8069V4.2H51.0489ZM50.9229 9.45C51.6043 9.45 52.1223 9.30533 52.4769 9.016C52.8316 8.71733 53.0089 8.29733 53.0089 7.756C53.0089 7.20533 52.8316 6.78533 52.4769 6.496C52.1223 6.19733 51.6043 6.048 50.9229 6.048H49.0749V9.45H50.9229ZM64.2321 12.18V14H56.6441V4.2H64.0501V6.02H58.8981V8.148H63.4481V9.912H58.8981V12.18H64.2321ZM74.7447 4.2V14H72.8827L67.9967 8.05V14H65.7567V4.2H67.6327L72.5047 10.15V4.2H74.7447ZM83.2373 11.9H78.6873L77.8193 14H75.4953L79.8633 4.2H82.1033L86.4853 14H84.1053L83.2373 11.9ZM82.5233 10.178L80.9693 6.426L79.4153 10.178H82.5233ZM90.4421 14.168C89.6674 14.168 88.9161 14.0653 88.1881 13.86C87.4694 13.6453 86.8907 13.37 86.4521 13.034L87.2221 11.326C87.6421 11.634 88.1414 11.8813 88.7201 12.068C89.2987 12.2547 89.8774 12.348 90.4561 12.348C91.1001 12.348 91.5761 12.2547 91.8841 12.068C92.1921 11.872 92.3461 11.6153 92.3461 11.298C92.3461 11.0647 92.2527 10.8733 92.0661 10.724C91.8887 10.5653 91.6554 10.4393 91.3661 10.346C91.0861 10.2527 90.7034 10.15 90.2181 10.038C89.4714 9.86067 88.8601 9.68333 88.3841 9.506C87.9081 9.32867 87.4974 9.044 87.1521 8.652C86.8161 8.26 86.6481 7.73733 86.6481 7.084C86.6481 6.51467 86.8021 6.00133 87.1101 5.544C87.4181 5.07733 87.8801 4.70867 88.4961 4.438C89.1214 4.16733 89.8821 4.032 90.7781 4.032C91.4034 4.032 92.0147 4.10667 92.6121 4.256C93.2094 4.40533 93.7321 4.62 94.1801 4.9L93.4801 6.622C92.5747 6.10867 91.6694 5.852 90.7641 5.852C90.1294 5.852 89.6581 5.95467 89.3501 6.16C89.0514 6.36533 88.9021 6.636 88.9021 6.972C88.9021 7.308 89.0747 7.56 89.4201 7.728C89.7747 7.88667 90.3114 8.04533 91.0301 8.204C91.7767 8.38133 92.3881 8.55867 92.8641 8.736C93.3401 8.91333 93.7461 9.19333 94.0821 9.576C94.4274 9.95867 94.6001 10.4767 94.6001 11.13C94.6001 11.69 94.4414 12.2033 94.1241 12.67C93.8161 13.1273 93.3494 13.4913 92.7241 13.762C92.0987 14.0327 91.3381 14.168 90.4421 14.168Z" fill="#333333"/>
<path d="M111.158 67.212H113.104L108.484 80.4H106.538L111.158 67.212ZM125.967 79L125.953 73.12L123.069 77.964H122.047L119.177 73.246V79H117.049V69.2H118.925L122.593 75.29L126.205 69.2H128.067L128.095 79H125.967ZM137.728 77.18V79H130.14V69.2H137.546V71.02H132.394V73.148H136.944V74.912H132.394V77.18H137.728ZM135.068 68.402L133.85 67.338L132.632 68.402H131.036L132.884 66.386H134.816L136.664 68.402H135.068ZM142.473 79.168C141.698 79.168 140.947 79.0653 140.219 78.86C139.5 78.6453 138.922 78.37 138.483 78.034L139.253 76.326C139.673 76.634 140.172 76.8813 140.751 77.068C141.33 77.2547 141.908 77.348 142.487 77.348C143.131 77.348 143.607 77.2547 143.915 77.068C144.223 76.872 144.377 76.6153 144.377 76.298C144.377 76.0647 144.284 75.8733 144.097 75.724C143.92 75.5653 143.686 75.4393 143.397 75.346C143.117 75.2527 142.734 75.15 142.249 75.038C141.502 74.8607 140.891 74.6833 140.415 74.506C139.939 74.3287 139.528 74.044 139.183 73.652C138.847 73.26 138.679 72.7373 138.679 72.084C138.679 71.5147 138.833 71.0013 139.141 70.544C139.449 70.0773 139.911 69.7087 140.527 69.438C141.152 69.1673 141.913 69.032 142.809 69.032C143.434 69.032 144.046 69.1067 144.643 69.256C145.24 69.4053 145.763 69.62 146.211 69.9L145.511 71.622C144.606 71.1087 143.7 70.852 142.795 70.852C142.16 70.852 141.689 70.9547 141.381 71.16C141.082 71.3653 140.933 71.636 140.933 71.972C140.933 72.308 141.106 72.56 141.451 72.728C141.806 72.8867 142.342 73.0453 143.061 73.204C143.808 73.3813 144.419 73.5587 144.895 73.736C145.371 73.9133 145.777 74.1933 146.113 74.576C146.458 74.9587 146.631 75.4767 146.631 76.13C146.631 76.69 146.472 77.2033 146.155 77.67C145.847 78.1273 145.38 78.4913 144.755 78.762C144.13 79.0327 143.369 79.168 142.473 79.168Z" fill="#333333"/>
<defs>
<linearGradient id="paint0_linear" x1="105" y1="9" x2="9.96194" y2="90.5573" gradientUnits="userSpaceOnUse">
<stop stop-color="#4F8FDF"/>
<stop offset="1" stop-color="#45D9A6"/>
</linearGradient>
<linearGradient id="paint1_linear" x1="159" y1="19" x2="107.106" y2="59.37" gradientUnits="userSpaceOnUse">
<stop stop-color="#4F8FDF"/>
<stop offset="1" stop-color="#45D9A6"/>
</linearGradient>
</defs>
</svg>
