<svg width="182" height="97" viewBox="0 0 182 97" fill="none" xmlns="http://www.w3.org/2000/svg">
<path d="M24.048 28.6V79H9.792V39.616H0.432V28.6H24.048ZM77.7077 69.352H70.2197V79H56.3237V69.352H29.6837V60.064L52.2917 28.6H67.0517L46.5317 58.048H56.7557V49.48H70.2197V58.048H77.7077V69.352ZM97.4531 27.592C104.701 27.592 110.413 29.728 114.589 34C118.765 38.272 120.853 44.416 120.853 52.432C120.853 58.192 119.725 63.16 117.469 67.336C115.261 71.464 112.117 74.608 108.037 76.768C104.005 78.928 99.3251 80.008 93.9971 80.008C91.1651 80.008 88.4531 79.672 85.8611 79C83.2691 78.376 81.0611 77.488 79.2371 76.336L84.4211 66.112C86.8691 67.84 89.9651 68.704 93.7091 68.704C97.3091 68.704 100.213 67.72 102.421 65.752C104.677 63.736 105.997 60.832 106.381 57.04C103.501 59.488 99.7331 60.712 95.0771 60.712C91.9091 60.712 89.0051 60.064 86.3651 58.768C83.7251 57.424 81.6131 55.552 80.0291 53.152C78.4931 50.704 77.7251 47.92 77.7251 44.8C77.7251 41.392 78.5891 38.392 80.3171 35.8C82.0931 33.16 84.4691 31.144 87.4451 29.752C90.4691 28.312 93.8051 27.592 97.4531 27.592ZM98.4611 50.488C100.525 50.488 102.205 49.912 103.501 48.76C104.797 47.56 105.445 46 105.445 44.08C105.445 42.208 104.797 40.696 103.501 39.544C102.253 38.344 100.549 37.744 98.3891 37.744C96.3731 37.744 94.7171 38.32 93.4211 39.472C92.1731 40.624 91.5491 42.184 91.5491 44.152C91.5491 46.072 92.1731 47.608 93.4211 48.76C94.7171 49.912 96.3971 50.488 98.4611 50.488ZM128.707 68.632C130.275 68.632 131.571 69.128 132.595 70.12C133.619 71.112 134.131 72.408 134.131 74.008C134.131 74.744 134.035 75.48 133.843 76.216C133.651 76.952 133.219 78.056 132.547 79.528L129.523 86.536H123.811L126.067 78.712C125.171 78.296 124.467 77.688 123.955 76.888C123.475 76.056 123.235 75.096 123.235 74.008C123.235 72.408 123.747 71.112 124.771 70.12C125.795 69.128 127.107 68.632 128.707 68.632Z" fill="url(#paint0_linear)"/>
<path d="M140.6 29.44C144.627 29.44 147.8 30.6267 150.12 33C152.44 35.3733 153.6 38.7867 153.6 43.24C153.6 46.44 152.973 49.2 151.72 51.52C150.493 53.8133 148.747 55.56 146.48 56.76C144.24 57.96 141.64 58.56 138.68 58.56C137.107 58.56 135.6 58.3733 134.16 58C132.72 57.6533 131.493 57.16 130.48 56.52L133.36 50.84C134.72 51.8 136.44 52.28 138.52 52.28C140.52 52.28 142.133 51.7333 143.36 50.64C144.613 49.52 145.347 47.9067 145.56 45.8C143.96 47.16 141.867 47.84 139.28 47.84C137.52 47.84 135.907 47.48 134.44 46.76C132.973 46.0133 131.8 44.9733 130.92 43.64C130.067 42.28 129.64 40.7333 129.64 39C129.64 37.1067 130.12 35.44 131.08 34C132.067 32.5333 133.387 31.4133 135.04 30.64C136.72 29.84 138.573 29.44 140.6 29.44ZM141.16 42.16C142.307 42.16 143.24 41.84 143.96 41.2C144.68 40.5333 145.04 39.6667 145.04 38.6C145.04 37.56 144.68 36.72 143.96 36.08C143.267 35.4133 142.32 35.08 141.12 35.08C140 35.08 139.08 35.4 138.36 36.04C137.667 36.68 137.32 37.5467 137.32 38.64C137.32 39.7067 137.667 40.56 138.36 41.2C139.08 41.84 140.013 42.16 141.16 42.16ZM167.897 58.56C165.497 58.56 163.363 57.9867 161.497 56.84C159.63 55.6933 158.163 54.0267 157.097 51.84C156.057 49.6267 155.537 47.0133 155.537 44C155.537 40.9867 156.057 38.3867 157.097 36.2C158.163 33.9867 159.63 32.3067 161.497 31.16C163.363 30.0133 165.497 29.44 167.897 29.44C170.27 29.44 172.39 30.0133 174.257 31.16C176.123 32.3067 177.577 33.9867 178.617 36.2C179.683 38.3867 180.217 40.9867 180.217 44C180.217 47.0133 179.683 49.6267 178.617 51.84C177.577 54.0267 176.123 55.6933 174.257 56.84C172.39 57.9867 170.27 58.56 167.897 58.56ZM167.897 52.08C169.23 52.08 170.283 51.44 171.057 50.16C171.857 48.8533 172.257 46.8 172.257 44C172.257 41.2 171.857 39.16 171.057 37.88C170.283 36.5733 169.23 35.92 167.897 35.92C166.537 35.92 165.457 36.5733 164.657 37.88C163.883 39.16 163.497 41.2 163.497 44C163.497 46.8 163.883 48.8533 164.657 50.16C165.457 51.44 166.537 52.08 167.897 52.08Z" fill="url(#paint1_linear)"/>
<path d="M5.404 4.2C6.272 4.2 7.02333 4.34467 7.658 4.634C8.302 4.92333 8.79667 5.334 9.142 5.866C9.48733 6.398 9.66 7.028 9.66 7.756C9.66 8.47467 9.48733 9.10467 9.142 9.646C8.79667 10.178 8.302 10.5887 7.658 10.878C7.02333 11.158 6.272 11.298 5.404 11.298H3.43V14H1.162V4.2H5.404ZM5.278 9.45C5.95933 9.45 6.47733 9.30533 6.832 9.016C7.18667 8.71733 7.364 8.29733 7.364 7.756C7.364 7.20533 7.18667 6.78533 6.832 6.496C6.47733 6.19733 5.95933 6.048 5.278 6.048H3.43V9.45H5.278ZM15.8819 14.168C14.8646 14.168 13.9452 13.9487 13.1239 13.51C12.3119 13.0713 11.6726 12.4693 11.2059 11.704C10.7486 10.9293 10.5199 10.0613 10.5199 9.1C10.5199 8.13867 10.7486 7.27533 11.2059 6.51C11.6726 5.73533 12.3119 5.12867 13.1239 4.69C13.9452 4.25133 14.8646 4.032 15.8819 4.032C16.8992 4.032 17.8139 4.25133 18.6259 4.69C19.4379 5.12867 20.0772 5.73533 20.5439 6.51C21.0106 7.27533 21.2439 8.13867 21.2439 9.1C21.2439 10.0613 21.0106 10.9293 20.5439 11.704C20.0772 12.4693 19.4379 13.0713 18.6259 13.51C17.8139 13.9487 16.8992 14.168 15.8819 14.168ZM15.8819 12.236C16.4606 12.236 16.9832 12.1053 17.4499 11.844C17.9166 11.5733 18.2806 11.2 18.5419 10.724C18.8126 10.248 18.9479 9.70667 18.9479 9.1C18.9479 8.49333 18.8126 7.952 18.5419 7.476C18.2806 7 17.9166 6.63133 17.4499 6.37C16.9832 6.09933 16.4606 5.964 15.8819 5.964C15.3032 5.964 14.7806 6.09933 14.3139 6.37C13.8472 6.63133 13.4786 7 13.2079 7.476C12.9466 7.952 12.8159 8.49333 12.8159 9.1C12.8159 9.70667 12.9466 10.248 13.2079 10.724C13.4786 11.2 13.8472 11.5733 14.3139 11.844C14.7806 12.1053 15.3032 12.236 15.8819 12.236ZM28.9124 14L27.0224 11.27H26.9104H24.9364V14H22.6684V4.2H26.9104C27.7784 4.2 28.5297 4.34467 29.1644 4.634C29.8084 4.92333 30.3031 5.334 30.6484 5.866C30.9937 6.398 31.1664 7.028 31.1664 7.756C31.1664 8.484 30.9891 9.114 30.6344 9.646C30.2891 10.1687 29.7944 10.57 29.1504 10.85L31.3484 14H28.9124ZM28.8704 7.756C28.8704 7.20533 28.6931 6.78533 28.3384 6.496C27.9837 6.19733 27.4657 6.048 26.7844 6.048H24.9364V9.464H26.7844C27.4657 9.464 27.9837 9.31467 28.3384 9.016C28.6931 8.71733 28.8704 8.29733 28.8704 7.756ZM42.8222 11.9H38.2722L37.4042 14H35.0802L39.4482 4.2H41.6882L46.0702 14H43.6902L42.8222 11.9ZM42.1082 10.178L40.5542 6.426L39.0002 10.178H42.1082ZM51.0489 4.2C51.9169 4.2 52.6683 4.34467 53.3029 4.634C53.9469 4.92333 54.4416 5.334 54.7869 5.866C55.1323 6.398 55.3049 7.028 55.3049 7.756C55.3049 8.47467 55.1323 9.10467 54.7869 9.646C54.4416 10.178 53.9469 10.5887 53.3029 10.878C52.6683 11.158 51.9169 11.298 51.0489 11.298H49.0749V14H46.8069V4.2H51.0489ZM50.9229 9.45C51.6043 9.45 52.1223 9.30533 52.4769 9.016C52.8316 8.71733 53.0089 8.29733 53.0089 7.756C53.0089 7.20533 52.8316 6.78533 52.4769 6.496C52.1223 6.19733 51.6043 6.048 50.9229 6.048H49.0749V9.45H50.9229ZM64.2321 12.18V14H56.6441V4.2H64.0501V6.02H58.8981V8.148H63.4481V9.912H58.8981V12.18H64.2321ZM74.7447 4.2V14H72.8827L67.9967 8.05V14H65.7567V4.2H67.6327L72.5047 10.15V4.2H74.7447ZM83.2373 11.9H78.6873L77.8193 14H75.4953L79.8633 4.2H82.1033L86.4853 14H84.1053L83.2373 11.9ZM82.5233 10.178L80.9693 6.426L79.4153 10.178H82.5233ZM90.4421 14.168C89.6674 14.168 88.9161 14.0653 88.1881 13.86C87.4694 13.6453 86.8907 13.37 86.4521 13.034L87.2221 11.326C87.6421 11.634 88.1414 11.8813 88.7201 12.068C89.2987 12.2547 89.8774 12.348 90.4561 12.348C91.1001 12.348 91.5761 12.2547 91.8841 12.068C92.1921 11.872 92.3461 11.6153 92.3461 11.298C92.3461 11.0647 92.2527 10.8733 92.0661 10.724C91.8887 10.5653 91.6554 10.4393 91.3661 10.346C91.0861 10.2527 90.7034 10.15 90.2181 10.038C89.4714 9.86067 88.8601 9.68333 88.3841 9.506C87.9081 9.32867 87.4974 9.044 87.1521 8.652C86.8161 8.26 86.6481 7.73733 86.6481 7.084C86.6481 6.51467 86.8021 6.00133 87.1101 5.544C87.4181 5.07733 87.8801 4.70867 88.4961 4.438C89.1214 4.16733 89.8821 4.032 90.7781 4.032C91.4034 4.032 92.0147 4.10667 92.6121 4.256C93.2094 4.40533 93.7321 4.62 94.1801 4.9L93.4801 6.622C92.5747 6.10867 91.6694 5.852 90.7641 5.852C90.1294 5.852 89.6581 5.95467 89.3501 6.16C89.0514 6.36533 88.9021 6.636 88.9021 6.972C88.9021 7.308 89.0747 7.56 89.4201 7.728C89.7747 7.88667 90.3114 8.04533 91.0301 8.204C91.7767 8.38133 92.3881 8.55867 92.8641 8.736C93.3401 8.91333 93.7461 9.19333 94.0821 9.576C94.4274 9.95867 94.6001 10.4767 94.6001 11.13C94.6001 11.69 94.4414 12.2033 94.1241 12.67C93.8161 13.1273 93.3494 13.4913 92.7241 13.762C92.0987 14.0327 91.3381 14.168 90.4421 14.168Z" fill="#333333"/>
<path d="M144.158 67.212H146.104L141.484 80.4H139.538L144.158 67.212ZM158.967 79L158.953 73.12L156.069 77.964H155.047L152.177 73.246V79H150.049V69.2H151.925L155.593 75.29L159.205 69.2H161.067L161.095 79H158.967ZM170.728 77.18V79H163.14V69.2H170.546V71.02H165.394V73.148H169.944V74.912H165.394V77.18H170.728ZM168.068 68.402L166.85 67.338L165.632 68.402H164.036L165.884 66.386H167.816L169.664 68.402H168.068ZM175.473 79.168C174.698 79.168 173.947 79.0653 173.219 78.86C172.5 78.6453 171.922 78.37 171.483 78.034L172.253 76.326C172.673 76.634 173.172 76.8813 173.751 77.068C174.33 77.2547 174.908 77.348 175.487 77.348C176.131 77.348 176.607 77.2547 176.915 77.068C177.223 76.872 177.377 76.6153 177.377 76.298C177.377 76.0647 177.284 75.8733 177.097 75.724C176.92 75.5653 176.686 75.4393 176.397 75.346C176.117 75.2527 175.734 75.15 175.249 75.038C174.502 74.8607 173.891 74.6833 173.415 74.506C172.939 74.3287 172.528 74.044 172.183 73.652C171.847 73.26 171.679 72.7373 171.679 72.084C171.679 71.5147 171.833 71.0013 172.141 70.544C172.449 70.0773 172.911 69.7087 173.527 69.438C174.152 69.1673 174.913 69.032 175.809 69.032C176.434 69.032 177.046 69.1067 177.643 69.256C178.24 69.4053 178.763 69.62 179.211 69.9L178.511 71.622C177.606 71.1087 176.7 70.852 175.795 70.852C175.16 70.852 174.689 70.9547 174.381 71.16C174.082 71.3653 173.933 71.636 173.933 71.972C173.933 72.308 174.106 72.56 174.451 72.728C174.806 72.8867 175.342 73.0453 176.061 73.204C176.808 73.3813 177.419 73.5587 177.895 73.736C178.371 73.9133 178.777 74.1933 179.113 74.576C179.458 74.9587 179.631 75.4767 179.631 76.13C179.631 76.69 179.472 77.2033 179.155 77.67C178.847 78.1273 178.38 78.4913 177.755 78.762C177.13 79.0327 176.369 79.168 175.473 79.168Z" fill="#333333"/>
<defs>
<linearGradient id="paint0_linear" x1="136" y1="9" x2="40.3827" y2="115.28" gradientUnits="userSpaceOnUse">
<stop stop-color="#4F8FDF"/>
<stop offset="1" stop-color="#45D9A6"/>
</linearGradient>
<linearGradient id="paint1_linear" x1="182" y1="19" x2="130.106" y2="59.37" gradientUnits="userSpaceOnUse">
<stop stop-color="#4F8FDF"/>
<stop offset="1" stop-color="#45D9A6"/>
</linearGradient>
</defs>
</svg>
